<?xml version="1.0" encoding="UTF-8"?>
<svg id="Capa_1" data-name="Capa 1" xmlns="http://www.w3.org/2000/svg" viewBox="0 0 837.66 837.66">
  <defs>
    <style>
      .cls-1, .cls-2, .cls-3 {
        fill: #fff;
      }

      .cls-2 {
        stroke: #e5007e;
        stroke-width: 14.29px;
      }

      .cls-2, .cls-3 {
        stroke-miterlimit: 10;
      }

      .cls-3 {
        stroke: #fff;
        stroke-width: 45.76px;
      }

      .cls-4 {
        fill: #da1e7a;
      }
    </style>
  </defs>
  <circle class="cls-2" cx="418.83" cy="418.83" r="411.68"/>
  <g>
    <circle class="cls-4" cx="418.83" cy="418.83" r="352.45"/>
    <g>
      <path class="cls-3" d="M563.16,325.82c-7.64,10.02-16.12,18.39-25.56,25.81-9.38,7.38-19.77,13.15-30.71,18.09,3.2,3.82,6.73,5.63,11.84,5.69,13.64.17,26.92,2.68,39.05,9.14,10.83,5.77,17.29,14.63,16.9,27.15-.31,9.71-4.92,17.63-12.11,24.13-2.04,1.84-4.18,3.58-6.38,5.23-1.2.9-1.2,1.66-.44,2.81,12.94,19.61,29.44,35.21,51.65,44.37,1.91.79,3.97,1.48,4.03,3.95.06,2.35-1.5,3.77-3.42,4.88-19.96,11.6-41.1,20.41-63.61,25.95-5.76,1.42-11.59,2.53-17.4,3.72-2.43.5-4.67-.14-6.71-1.55-6.94-4.78-12.09-11.17-16.66-18.05-2.43-3.66-4.56-7.52-7.01-11.61-4.37,3.64-8.83,7.13-13.03,10.89-13.92,12.47-27.81,24.97-41.59,37.59-12.89,11.81-31.83,11.79-44.97.18-17.88-15.8-36.02-31.32-54.05-46.96-.59-.51-1.27-.92-1.61-1.17-3.77,5.83-7.09,11.74-11.2,17.05-3.32,4.29-7.54,7.92-11.51,11.7-2.13,2.02-4.87,2.36-7.77,1.84-22.89-4.1-44.74-11.28-65.52-21.56-5.09-2.52-10.06-5.27-15.08-7.92-.64-.34-1.29-.69-1.87-1.13-3.27-2.44-2.76-5.69.88-7.48,6.61-3.25,13.46-6.2,19.6-10.2,13.98-9.11,24.92-21.27,34.05-35.04.26-.39.43-.84.7-1.39-1.96-1.39-3.93-2.65-5.74-4.11-8.73-7.02-14.41-15.7-14.42-27.14-.01-11.92,6.12-20.34,16.34-26.04,8.11-4.52,17.13-6.52,26.21-8.06,5.28-.9,10.65-1.55,16-1.69,4.2-.11,6.41-2.88,9.8-5.01-11.54-5.04-21.98-10.9-31.55-18.19-9.49-7.23-17.8-15.61-25.38-25.56-.25,2.07-.36,3.47-.61,4.84-1.24,6.77-4.67,12.39-9.45,17.31-.64.65-1.36,1.54-1.42,2.37-.77,10.22-6.39,17.37-14.67,22.93-.91.61-1.83,1.63-2.14,2.64-1.44,4.59-4.17,8.27-7.63,11.56-.84.79-1.53,2.07-1.66,3.19-.93,7.9-4.37,14.44-10.9,19.13-6.44,4.63-13.4,5.01-20.48,1.37-5.75-2.96-10.46-7.05-13.66-12.69-2.46-4.33-1.99-8.4.98-12.34,3.43-4.56,8.29-7.14,13.36-9.4,2.82-1.25,5.75-2.23,8.59-3.45,2.53-1.09,4.4-2.88,4.58-5.75.44-6.96,4.27-11.77,10.01-15.32,1.19-.74,1.54-1.42,1.55-2.84.05-4.93.38-9.85.59-14.65-4.11-2.32-8.79-4.46-12.91-7.38-11.93-8.47-20.85-19.27-25.14-33.36-1.98-6.51-1.11-12.5,3.52-17.79.44-.5.58-1.84.22-2.35-6.56-9.27-9.56-19.75-10.79-30.79-1.35-12.08-.51-24.01,3.37-35.61,1.64-4.9,3.95-9.5,7.6-13.31,7.05-7.37,18.36-8.84,28.63-3.71,2.16,1.08,4.23,2.31,6.39,3.51,1.1-3.57,1.94-7.07,3.24-10.41,6.89-17.69,19.09-29.97,37.94-35.14,7.03-1.93,14.19-2.06,21.17.41,11.91,4.22,17.79,13.06,18.87,25.08.48,5.38.08,10.84.08,16.52,31.6-20.92,67.12-29.3,104.77-29.34,37.6-.04,73.18,7.82,105.1,29.5-.22-2.48-.42-4.57-.58-6.67-.55-7.03-.18-13.97,2.75-20.51,4.8-10.72,13.88-15.59,25.19-16.12,17.73-.83,31.26,7.44,42.04,20.59,5.61,6.85,9.02,14.79,10.85,23.4.19.91.45,1.8.75,3.02,1.16-.74,2.09-1.35,3.03-1.93,6.19-3.88,12.88-5.9,20.22-4.5,8.54,1.63,13.61,7.36,17.11,14.76,4.34,9.18,5.84,18.96,6.07,28.96.29,12.67-1.71,24.91-7.47,36.38-1.15,2.29-3.61,4.36-3.72,6.61-.1,2.15,2.2,4.34,3.25,6.61,1.99,4.3,1.71,8.76.45,13.17-3.5,12.25-11.17,21.77-20.71,29.98-5.19,4.47-11.05,7.89-16.92,9.96.12,5.57.19,10.73.41,15.89.03.69.7,1.57,1.33,1.98,5.64,3.7,9.36,8.55,10.11,15.39.43,3.92,3.56,5.44,6.81,6.79,4.12,1.71,8.46,3.1,12.21,5.41,3.22,1.98,6.03,4.82,8.51,7.71,2.33,2.7,2.38,6.24.81,9.35-4.69,9.26-12.1,15.31-22.71,16.51-3.01.34-6.59-.66-9.32-2.11-8.14-4.3-12.69-11.22-13.65-20.37-.11-1.06-.71-2.3-1.5-3.03-3.71-3.4-6.59-7.27-8.09-12.1-.25-.8-1-1.59-1.73-2.1-6.99-4.88-12.69-10.81-14.02-19.43-.56-3.64-2.06-6.26-4.42-8.89-4.37-4.87-6.82-10.67-7.39-17.18-.05-.62-.22-1.23-.46-2.53Z"/>
      <path class="cls-4" d="M563.16,325.82c-7.64,10.02-16.12,18.39-25.56,25.81-9.38,7.38-19.77,13.15-30.71,18.09,3.2,3.82,6.73,5.63,11.84,5.69,13.64.17,26.92,2.68,39.05,9.14,10.83,5.77,17.29,14.63,16.9,27.15-.31,9.71-4.92,17.63-12.11,24.13-2.04,1.84-4.18,3.58-6.38,5.23-1.2.9-1.2,1.66-.44,2.81,12.94,19.61,29.44,35.21,51.65,44.37,1.91.79,3.97,1.48,4.03,3.95.06,2.35-1.5,3.77-3.42,4.88-19.96,11.6-41.1,20.41-63.61,25.95-5.76,1.42-11.59,2.53-17.4,3.72-2.43.5-4.67-.14-6.71-1.55-6.94-4.78-12.09-11.17-16.66-18.05-2.43-3.66-4.56-7.52-7.01-11.61-4.37,3.64-8.83,7.13-13.03,10.89-13.92,12.47-27.81,24.97-41.59,37.59-12.89,11.81-31.83,11.79-44.97.18-17.88-15.8-36.02-31.32-54.05-46.96-.59-.51-1.27-.92-1.61-1.17-3.77,5.83-7.09,11.74-11.2,17.05-3.32,4.29-7.54,7.92-11.51,11.7-2.13,2.02-4.87,2.36-7.77,1.84-22.89-4.1-44.74-11.28-65.52-21.56-5.09-2.52-10.06-5.27-15.08-7.92-.64-.34-1.29-.69-1.87-1.13-3.27-2.44-2.76-5.69.88-7.48,6.61-3.25,13.46-6.2,19.6-10.2,13.98-9.11,24.92-21.27,34.05-35.04.26-.39.43-.84.7-1.39-1.96-1.39-3.93-2.65-5.74-4.11-8.73-7.02-14.41-15.7-14.42-27.14-.01-11.92,6.12-20.34,16.34-26.04,8.11-4.52,17.13-6.52,26.21-8.06,5.28-.9,10.65-1.55,16-1.69,4.2-.11,6.41-2.88,9.8-5.01-11.54-5.04-21.98-10.9-31.55-18.19-9.49-7.23-17.8-15.61-25.38-25.56-.25,2.07-.36,3.47-.61,4.84-1.24,6.77-4.67,12.39-9.45,17.31-.64.65-1.36,1.54-1.42,2.37-.77,10.22-6.39,17.37-14.67,22.93-.91.61-1.83,1.63-2.14,2.64-1.44,4.59-4.17,8.27-7.63,11.56-.84.79-1.53,2.07-1.66,3.19-.93,7.9-4.37,14.44-10.9,19.13-6.44,4.63-13.4,5.01-20.48,1.37-5.75-2.96-10.46-7.05-13.66-12.69-2.46-4.33-1.99-8.4.98-12.34,3.43-4.56,8.29-7.14,13.36-9.4,2.82-1.25,5.75-2.23,8.59-3.45,2.53-1.09,4.4-2.88,4.58-5.75.44-6.96,4.27-11.77,10.01-15.32,1.19-.74,1.54-1.42,1.55-2.84.05-4.93.38-9.85.59-14.65-4.11-2.32-8.79-4.46-12.91-7.38-11.93-8.47-20.85-19.27-25.14-33.36-1.98-6.51-1.11-12.5,3.52-17.79.44-.5.58-1.84.22-2.35-6.56-9.27-9.56-19.75-10.79-30.79-1.35-12.08-.51-24.01,3.37-35.61,1.64-4.9,3.95-9.5,7.6-13.31,7.05-7.37,18.36-8.84,28.63-3.71,2.16,1.08,4.23,2.31,6.39,3.51,1.1-3.57,1.94-7.07,3.24-10.41,6.89-17.69,19.09-29.97,37.94-35.14,7.03-1.93,14.19-2.06,21.17.41,11.91,4.22,17.79,13.06,18.87,25.08.48,5.38.08,10.84.08,16.52,31.6-20.92,67.12-29.3,104.77-29.34,37.6-.04,73.18,7.82,105.1,29.5-.22-2.48-.42-4.57-.58-6.67-.55-7.03-.18-13.97,2.75-20.51,4.8-10.72,13.88-15.59,25.19-16.12,17.73-.83,31.26,7.44,42.04,20.59,5.61,6.85,9.02,14.79,10.85,23.4.19.91.45,1.8.75,3.02,1.16-.74,2.09-1.35,3.03-1.93,6.19-3.88,12.88-5.9,20.22-4.5,8.54,1.63,13.61,7.36,17.11,14.76,4.34,9.18,5.84,18.96,6.07,28.96.29,12.67-1.71,24.91-7.47,36.38-1.15,2.29-3.61,4.36-3.72,6.61-.1,2.15,2.2,4.34,3.25,6.61,1.99,4.3,1.71,8.76.45,13.17-3.5,12.25-11.17,21.77-20.71,29.98-5.19,4.47-11.05,7.89-16.92,9.96.12,5.57.19,10.73.41,15.89.03.69.7,1.57,1.33,1.98,5.64,3.7,9.36,8.55,10.11,15.39.43,3.92,3.56,5.44,6.81,6.79,4.12,1.71,8.46,3.1,12.21,5.41,3.22,1.98,6.03,4.82,8.51,7.71,2.33,2.7,2.38,6.24.81,9.35-4.69,9.26-12.1,15.31-22.71,16.51-3.01.34-6.59-.66-9.32-2.11-8.14-4.3-12.69-11.22-13.65-20.37-.11-1.06-.71-2.3-1.5-3.03-3.71-3.4-6.59-7.27-8.09-12.1-.25-.8-1-1.59-1.73-2.1-6.99-4.88-12.69-10.81-14.02-19.43-.56-3.64-2.06-6.26-4.42-8.89-4.37-4.87-6.82-10.67-7.39-17.18-.05-.62-.22-1.23-.46-2.53ZM419.04,178.8c-.13-.02-.27-.03-.4-.05-.26,1.91-.5,3.82-.79,5.73-2.91,18.71-12.71,32.44-30.29,40.54-12.51,5.76-25.92,8.37-39.38,10.77-10.43,1.86-20.76,3.92-30.51,8.23-13.42,5.93-24.27,14.68-29.88,28.29-9.3,22.55-4.26,43,11.38,61.03,11.51,13.27,26.63,21.65,42.86,28.21,2.15.87,4.06.95,6.31.23,9.13-2.94,18.52-3.41,28-2.25,12.58,1.54,23.74,6.52,33.94,13.77.88.63,1.99,1.26,3.03,1.32,3.49.18,7,.26,10.48.02,1.58-.11,3.29-.79,4.61-1.69,19.25-13.17,40-17.57,62.8-10.84,1.21.36,2.77.3,3.95-.14,10.04-3.67,19.5-8.47,28.23-14.61,11.74-8.26,21.39-18.23,26.99-31.58,11.01-26.27,1.56-53.98-23.34-68.36-10.18-5.88-21.27-9.1-32.81-11.14-12.57-2.22-25.15-4.37-37.26-8.57-18.63-6.45-31.14-18.49-35.75-37.74-.88-3.68-1.46-7.44-2.19-11.16ZM418.92,414.51c-.41-1.3-.66-2.02-.88-2.75-7.76-25.43-27.68-39.91-53.39-38.28-19.13,1.21-33.36,10.61-40.99,27.83-8.99,20.28-6.8,40.25,5.2,58.98,3.42,5.34,7.37,10.35,11.26,15.38,2.8,3.63,5.69,3.67,9.01.38,4.87-4.84,9.69-9.74,14.56-14.59,2.5-2.49,5.07-4.91,7.71-7.45,3.16,2.76,6.1,5.33,8.89,7.76-3.24,3.32-6.19,6.42-9.22,9.44-4.8,4.8-9.68,9.52-14.48,14.33-1.59,1.59-2.28,3.54-1.3,5.72.94,2.1,2.76,3.5,4.97,3.24,1.77-.21,3.76-1.15,5.05-2.38,6.93-6.67,13.66-13.54,20.47-20.33.89-.89,1.84-1.73,2.84-2.66,3.18,2.83,6.17,5.49,9.28,8.27-2.2,2.14-4.23,4.1-6.25,6.08-6.19,6.04-12.42,12.04-18.51,18.18-.99,1-1.7,2.57-1.88,3.96-.25,1.98.96,3.55,2.82,4.39,2.34,1.06,4.49.48,6.3-1.18,3.7-3.39,7.35-6.82,11-10.26,4.86-4.58,9.7-9.17,14.57-13.77,3.05,2.65,5.98,5.19,9.41,8.17-.83.55-1.6.91-2.18,1.46-7.71,7.49-15.41,15-23.09,22.53-2.52,2.48-2.45,4.1.2,6.43,3.77,3.31,7.49,6.68,11.38,9.85,2.56,2.09,5.18,4.24,8.1,5.74,8.3,4.26,18.92,2.41,26.51-4.39,5.66-5.07,11.22-10.26,16.82-15.4,3.02-2.77,3.07-4.17.03-6.9-27.1-24.31-54.17-48.64-81.35-72.85-7.47-6.65-15.83-12.14-25.32-15.65-5.14-1.9-10.52-3.18-16.26-4.88.74-3.19,1.55-6.73,2.4-10.4,7.69.4,14.67,2.43,21.41,5.31,12.03,5.13,22.47,12.68,32.14,21.21,23.23,20.5,46.27,41.22,69.38,61.84,2.72,2.42,5.39,4.9,8.15,7.26,1.67,1.43,3.64,1.74,5.71.83,2.06-.91,3.41-2.67,3.15-4.72-.22-1.74-1.16-3.74-2.44-4.94-8.73-8.18-17.64-16.18-26.48-24.25-2.07-1.89-4.12-3.79-6.23-5.72,24.48-24.21,48.76-48.23,73.09-72.3-2.81-2.59-5.63-5.19-8.87-8.18-24.17,24.02-48.57,48.28-73.05,72.62-1-.85-1.67-1.41-2.33-1.99-13.93-12.08-27.63-24.44-41.87-36.16-10.34-8.51-21.73-15.58-34.97-19.15-3.41-.92-6.89-1.62-10.9-2.55,2.98-2.49,5.6-4.86,8.43-6.96.91-.67,2.4-1.02,3.55-.88,11.69,1.39,22.2,6.04,31.52,12.76,11.22,8.09,21.89,16.92,32.68,25.59,4.46,3.58,8.6,7.56,13.1,11.55,20.67-20.73,41.23-41.37,61.99-62.2-1.23-.44-2.19-.83-3.17-1.13-14.13-4.39-28.03-4.02-41.21,2.97-12.45,6.61-19.86,17.48-24.6,30.3-.54,1.47-1.11,2.92-1.87,4.9ZM197.67,233.8c-.15,7.99.76,15.84,3.53,23.39,6.3,17.19,20.55,23.96,37.39,17.76,9.8-3.61,16.58-10.81,22.5-18.92.32-.44.09-1.5-.21-2.12-1.37-2.82-2.76-5.63-4.32-8.35-5.24-9.12-10.3-18.35-15.93-27.24-4.07-6.42-9.45-11.88-16.13-15.83-9.14-5.41-18.12-4.8-22.84,7.29-3.02,7.74-4.14,15.77-3.99,24.02ZM640.37,235.3c-.27-3.83-.43-7.67-.85-11.49-.69-6.34-2.3-12.43-5.56-18.01-2.61-4.48-6.42-6.93-11.81-6.58-4.15.27-7.6,2.23-10.85,4.55-6.43,4.58-11.66,10.37-15.62,17.02-6.56,11.04-12.61,22.39-18.77,33.65-.34.62-.13,1.98.36,2.52,4.08,4.43,7.89,9.24,12.57,12.98,7.03,5.61,15.38,8.5,24.58,7.29,9.61-1.26,15.9-7.14,20.18-15.38,4.33-8.34,5.69-17.29,5.76-26.55ZM570.6,243.01c.75-1.52,1.35-2.72,1.92-3.93,5.04-10.63,10.69-20.96,18.02-30.2,3.09-3.89,3.93-7.63,2.97-12.14-.15-.7-.27-1.42-.38-2.13-2.67-17-17.35-32.19-34.46-35.64-13.55-2.74-23.2,4.59-23.91,18.16-.39,7.47,1.18,14.66,3.33,21.73.48,1.59,1.47,3.21,2.68,4.37,8.41,8.11,16.08,16.81,22.23,26.72,2.58,4.15,4.92,8.44,7.6,13.06ZM267.45,242.92c.48-.81.84-1.33,1.12-1.89,7.38-14.45,16.87-27.36,29.08-38.27.58-.52,1.14-1.2,1.39-1.92,2.75-7.93,4.6-16.02,4.03-24.48-.83-12.29-9.6-19.34-22-17.6-9.57,1.34-17.48,5.95-24.15,12.59-7.93,7.89-11.83,17.62-12.74,28.64-.25,3.07.62,5.34,2.41,7.85,4.61,6.48,8.94,13.18,13.04,19.99,2.84,4.73,5.11,9.79,7.83,15.09ZM257.83,276.75c-3.62,2.14-7.55,4.87-11.83,6.91-12.65,6.01-25.39,7.18-37.95-.37-1.17-.7-1.69-.33-2.35.62-2.08,3-1.59,6.07-.41,9.18,4.92,12.95,13.89,22.44,25.94,29.25,4.14,2.34,8.64,3.81,13.42,4.02,9.48.42,16.82-4.17,23.47-10.14.37-.34.21-1.56-.06-2.23-1.98-4.98-4.61-9.79-5.95-14.93-1.93-7.39-2.93-15.02-4.29-22.31ZM579.35,275.79c-.07,1.07-.13,1.62-.14,2.16-.16,11.38-2.89,22.18-7.83,32.44-2.67,5.56-2.77,5.57,2.34,9.25,7.64,5.49,15.97,8.26,25.45,5.7,7.23-1.96,13.35-5.87,18.73-10.89,7.14-6.64,12.84-14.21,15.39-23.78.85-3.19-.5-5.52-2.3-8.09-8.17,5.85-17.12,7.12-26.64,5.41-9.33-1.68-17.38-6.01-25.02-12.21ZM470.1,449.63c1.79,1.68,3.32,3.11,4.84,4.54,6.12,5.76,12.22,11.53,18.35,17.27,3.53,3.3,5.96,3.13,8.96-.56.86-1.06,1.72-2.14,2.55-3.22,11.63-15.13,17.45-31.89,14.38-50.99-.67-4.18-2.15-8.24-3.43-12.96-15.59,15.68-30.58,30.75-45.65,45.92ZM244,492.05l-.48,1.36c2.38,1.47,4.81,2.86,7.12,4.44,1.9,1.3,3.49,1.36,5.11-.39,1.5-1.62,3.09-1.48,4.68-.04.42.38.91.67,1.37,1,5.08,3.67,3.92,3.63,9.04-.07,4.51-3.27,3.71-2.76,7.57.12.13.1.26.2.39.29,4.83,3.29,2.88,3.29,7.72,0,4.95-3.36,3.54-3.73,8.79.13q3.7,2.72,7.38.15c1-.69,1.9-1.64,3.01-2.02,1.07-.37,2.55-.56,3.48-.11,1.73.83,3.26,2.12,4.74,3.37,1.15.97,2.12.95,3.24.1.64-.49,1.41-.85,1.98-1.4,2.66-2.59,5.38-3.88,8.52-.7.08.08.31,0,.48,0,2.51-3.74,2.45-4.09-1.05-6.53-.4-.28-.83-.52-1.19-.84-1.63-1.46-3.08-1.43-4.97-.14-5.49,3.74-5.59,3.7-11.09,0-1.72-1.16-3.26-1.79-4.96-.2-4.18,3.89-8.16,3.85-12.19-.32-.53-.55-2.16-.56-3.01-.2-1.78.76-3.42,1.85-5.02,2.96-1.55,1.07-3.01,1.27-4.37-.12-3.71-3.82-7.47-3.61-11.26-.19-2,1.8-3.67,1.39-5.75-.08-4.84-3.42-4.97-3.39-9.89-.04-2.17,1.48-4.02,1.67-6.22.1-.79-.56-2.1-.42-3.17-.6ZM510.35,498.9c2.85-2.9,5.19-3.25,8.22-.9,4.58,3.54,3.52,3.71,8.63.1,3.53-2.49,3.46-2.42,7.09.15,5.03,3.57,3.93,3.89,9.21-.11,3.2-2.42,3.17-2.45,6.6-.1q5.18,3.55,10.28-.3c2.82-2.13,3.07-2.13,5.92-.09q5.49,3.93,10.99-.13c2.52-1.86,3.31-1.8,5.71.28.59.51,1.53,1.4,1.91,1.24,3.37-1.46,6.73-2.99,9.38-5.64-1.58-1.85-2.97-2.05-4.58-.59-1.32,1.2-2.94,1.32-4.2.11-4.11-3.92-7.99-3.7-11.9.24-1.07,1.08-2.19,1.01-3.45.08-1.49-1.1-3.07-2.16-4.75-2.93-.88-.41-2.24-.55-3.06-.16-2.38,1.14-4.6,2.62-6.75,3.89-2.17-1.26-4.3-2.31-6.2-3.66-1.52-1.08-2.85-1.15-4.09.11-3.98,4.04-7.89,4.1-11.95.1-1.3-1.27-2.76-1.37-4.27-.01-1.2,1.07-2.52,2.09-3.96,2.79-.85.41-2.19.47-3.03.09-1.91-.86-3.61-2.17-5.49-3.12-.67-.34-1.79-.48-2.4-.15-1.78.95-3.43,2.14-5.06,3.34-.33.24-.56.98-.44,1.38.36,1.19.92,2.32,1.64,4.02ZM462.13,459.38c-2.92,2.53-5.51,4.78-8.36,7.25,8.62,7.63,17.1,15.21,25.68,22.68,2.27,1.98,5.37,1.63,7.22-.41,1.89-2.09,1.89-5.04-.19-7.16-2.09-2.13-4.3-4.14-6.51-6.15-6.13-5.6-12.29-11.17-17.83-16.2ZM260.43,482.77c4.53,4.52,5.41,4.61,9.77,1.45.65-.48,1.34-.93,1.92-1.49,1.65-1.59,3.18-1.47,4.92-.04,1.74,1.42,3.69,3.66,5.5,3.62,1.97-.05,3.96-2.22,5.79-3.65,1.83-1.43,3.27-1.47,5.14.07,5.34,4.39,5.47,4.39,10.94.18,2.09-1.61,3.65-1.69,5.76,0,5.1,4.08,5.18,3.99,10.54.07,2.89-2.11,3.59-2.08,6.35.22,1.23,1.02,2.48,2.01,3.72,3.02.34-.66.36-.94.23-1.07-2.71-2.77-5.4-5.56-8.2-8.24-.4-.38-1.43-.39-2.05-.2-.82.27-1.52.91-2.27,1.39q-3.69,2.4-7.2-.24-3.91-2.94-8.04-.43c-4.72,2.87-4.86,3.04-9-.22-2.53-1.99-4.62-2.24-7.01-.13-3.36,2.96-6.64,3.17-9.83-.27-.21-.23-.54-.35-.79-.56-1.38-1.12-2.67-1.15-4.18-.08-1.78,1.25-3.71,2.32-5.63,3.36-2.03,1.11-4.14,2.1-6.38,3.23ZM507.37,485.26c.18.18.37.36.55.54,1.14-.86,2.31-1.7,3.43-2.6,3.11-2.48,3.63-2.5,6.72-.09.45.35.87.73,1.34,1.05,4.56,3.17,3.36,2.99,7.26-.07.57-.45,1.17-.88,1.7-1.37,1.82-1.68,3.53-1.59,5.34.09,1,.93,2.28,1.56,3.32,2.44,1.47,1.25,2.74,1.39,4.2-.07,1.02-1.02,2.33-1.76,3.4-2.74,1.47-1.35,2.84-1.27,4.34-.08,1.33,1.05,2.83,1.92,4.08,3.05,1.53,1.4,2.77,1.14,4.2-.12,1.27-1.12,2.72-2.03,4.06-3.08,1.27-.99,2.43-1,3.72.05,1.63,1.32,3.34,2.56,5.1,3.71.53.35,1.5.61,1.96.36,1.8-.99,3.48-2.19,5.36-3.42-1.85-1.75-3.16-3.67-5.91-3.26-.53.08-1.27-.37-1.72-.79-4.43-4.13-8.7-4.05-13.08.15-.53.5-2.13.42-2.95.03-1.89-.91-3.53-2.31-5.41-3.25-.73-.37-2.26-.42-2.69.04-4.34,4.73-8.61,4.31-13.04.19-1.11-1.03-2.41-.95-3.46.17-3.77,4.05-7.68,4.51-11.94.7-.4-.36-1.63-.5-1.91-.21-2.72,2.79-5.33,5.69-7.97,8.55ZM567.07,506.09c-2.45-2.62-3.37-3.06-5.4-1.13-4.18,3.95-7.98,3.82-12.01,0-1.52-1.44-3.23-1.46-4.71.06-3.83,3.92-7.59,3.68-11.39,0-1.54-1.49-3.33-1.54-4.74-.13-4.02,4-7.81,3.15-11.78-.04-.68-.55-1.89-.46-2.86-.67-.19.33-.38.66-.57.99,2.8,2.83,5.61,5.66,8.41,8.5,1.61,1.64,3.08,1.68,4.68-.13.84-.95,1.91-1.84,3.06-2.34.86-.37,2.52-.51,2.97-.01,4.25,4.7,8.34,4.09,12.58.05,1.18-1.13,2.49-1.15,3.96-.13.65.45,1.82.45,2.68.29,1.42-.27,2.8-.8,4.17-1.3,3.62-1.3,7.22-2.65,10.95-4.01ZM324.35,505.19c-.28-.42-.55-.84-.83-1.27-1.28.6-2.64,1.08-3.82,1.82-6.02,3.75-4.56,3.33-9.58-.34-2.1-1.54-3.69-1.72-6.03-.23-6.09,3.86-4.48,4.29-10.94-.17-1.89-1.3-3.2-1.29-4.94,0-1.8,1.33-3.84,3.39-5.71,3.33-2.01-.06-3.98-2.18-5.93-3.46-2.42-1.58-3.01-1.5-5.57,1.25,5.51,1.91,10.83,3.77,16.18,5.56.37.12,1.03-.07,1.34-.35,1.79-1.64,3.35-1.01,4.96.3,1,.81,2.12,1.48,3.16,2.26,1.64,1.22,3.17,1.2,4.92.05,5.77-3.79,5.78-3.72,11.48.28.56.39,1.92.57,2.27.22,3.1-3,6.05-6.15,9.05-9.25ZM276.32,468.47c1.23.89,2.33,1.57,3.3,2.4,1.87,1.6,3.57,1.74,5.56.05,1.65-1.39,3.61-3.4,5.41-3.38,1.91.02,3.89,1.99,5.65,3.34,1.82,1.39,3.12,1.32,5.07-.05,7.02-4.93,5.42-5.35,12.28.36,2.14,1.78,2.43,1.74,4.32-.52-1.86-3.95-5.18-6.46-8.66-8.88-1.56-1.08-3.02-1.38-4.39-.12-4.2,3.85-8.22,3.86-12.42-.05-.54-.51-2.14-.39-2.99-.01-1.91.86-3.62,2.14-5.5,3.09-.71.36-1.94.69-2.44.34-1.62-1.13-2.35-.11-3.19.9-.61.74-1.19,1.5-2.01,2.54ZM520.37,470.94c1.11,1.42,2.18,1.57,3.6.27,1.3-1.19,2.83-2.14,4.28-3.18,1.47-1.05,2.94-1.18,4.47-.02,1.55,1.17,3.21,2.19,4.72,3.4,1.06.86,1.95.92,3.03.1,1.41-1.08,2.94-2.01,4.29-3.15,1.42-1.2,2.68-1.21,4.12-.08,1.65,1.29,3.35,2.55,5.13,3.67.55.34,1.59.5,2.1.22,1.87-1.05,3.62-2.31,5.58-3.61-1.4-1.57-2.6-2.92-3.88-4.36-2.7,2.41-4.74.45-6.41-.91-3.1-2.52-5.83-2.52-8.75.07-2.24,1.99-4.51,2.18-6.95.21-1.12-.9-2.45-1.59-3.77-2.19-.66-.3-1.76-.53-2.23-.2-3.75,2.63-7.56,5.26-9.34,9.77ZM529.6,452.75c2.12,1.19,3.83,2.03,5.42,3.06,3.91,2.55,4.06,2.58,7.83-.23,3.25-2.43,3.62-3.51,7.77-.44.08.06.28-.06.72-.17-1.08-1.48-2.08-2.88-3.12-4.25-3.05-4.01-1.82-4.54-6.63-1.03-1.78,1.3-3.26,1.41-5.07.21-1.7-1.14-3.52-2.1-5.39-3.2-.61,2.38-1.16,4.53-1.55,6.04ZM286.94,455.11c.05.3.1.61.15.91,3.82-4.76,6.63-1.62,9.43.56,1.69,1.32,3.08,1.26,4.78.07,2.16-1.51,4.46-2.82,6.87-4.32-.1-.5-.19-1.2-.39-1.88-.86-2.95-1.78-3.29-4.55-1.75-.85.47-1.74.89-2.53,1.43-1.48,1.02-2.79.94-4.2-.2-1.22-.98-2.6-1.78-3.96-2.7-1.83,2.53-3.48,4.79-5.12,7.07-.18.25-.31.53-.46.8ZM491.52,273.98c-12.82-.13-24,10.11-24.09,22.05-.09,12.63,10.46,23.01,23.49,23.11,13.09.1,23.69-9.61,23.77-21.81.09-12.81-10.24-23.22-23.18-23.35ZM346.81,318.86c13.65.19,23.79-9.28,23.93-22.63.13-12.51-10.66-22.27-23.94-22.21-12.66.06-23.34,10.51-23.28,22.77-.07,14.21,11.33,21.9,23.28,22.07ZM430.18,318.97c3.98-2.4,5.39-6.62,3.48-10.81-2.26-4.96-4.6-9.89-7.09-14.75-1.5-2.93-3.89-5.03-7.46-4.97-3.6.05-6.09,2-7.59,5.14-2.34,4.93-4.66,9.86-6.91,14.83-1.79,3.96-.82,7.32,2.69,9.96,3.46,2.61,7.51,3.27,11.24,3.52,4.44-.02,8.21-.86,11.64-2.92ZM440.16,341.72c.95-.73,1.83-1.62,2.5-2.59,1.73-2.48,1.4-5.48-.67-7.45-2.04-1.95-5.15-2.19-7.62-.56-.61.4-1.15.89-1.72,1.34-8.65,6.77-18.31,6.82-27.05.17-.96-.73-1.94-1.53-3.04-1.95-2.25-.87-4.49-.7-6.38.98-1.75,1.56-2.27,3.66-1.5,5.7.56,1.49,1.71,2.96,2.98,3.96,6.12,4.83,13.04,7.75,21.04,7.75,8-.03,15.15-2.47,21.45-7.32ZM330,266.99c3-1.21,5.89-2.85,9.01-3.54,3.69-.82,7.56-.86,11.36-1.16,2.82-.23,5.28-2.18,5.76-4.71.47-2.47-1.03-4.96-3.76-6.05-.89-.35-1.87-.57-2.82-.65-6.85-.58-13.5.42-19.81,3.04-2.73,1.14-5.36,2.71-7.66,4.54-2.03,1.63-2.44,4.13-1.3,6.59,1.02,2.21,2.97,3.06,5.94,3.22.75-.29,2.02-.77,3.28-1.28ZM487.77,251.02c-3.56.59-5.79,3.1-5.55,5.96.27,3.21,2.91,5.14,6.64,5.37,3.96.24,7.96.54,11.8,1.43,2.7.63,5.18,2.22,7.7,3.5,3.16,1.61,6.56,1.07,8.32-1.45,1.8-2.57,1.21-5.82-1.61-8.09-1.18-.96-2.52-1.77-3.89-2.46-5.51-2.77-11.38-4.28-17.59-4.68-1.94.13-3.91.12-5.83.43ZM413.92,528.32c3.55,2.65,10.53,1.8,13.62-1.23,1.79-1.75,3.6-3.47,5.44-5.16,2.35-2.16,4.74-4.27,7.24-6.51-5.66-5.07-11.11-9.97-17.05-15.3-6.32,6.8-12.51,13.46-18.76,20.18,2.62,2.23,5.9,5.33,9.51,8.02ZM345.29,463.84c5.86-6.05,11.46-11.82,17.06-17.6-7.45-7.41-20.7-13.76-32.38-15.3,1.16,12.78,7.33,22.97,15.33,32.9ZM463.25,398.77c-12.81,6.95-24.32,15.59-34.89,25.71,1.81,1.64,3.4,3.08,4.49,4.06,10.39-9.87,20.64-19.59,30.88-29.32-.16-.15-.32-.31-.48-.46ZM464.9,384.78c-8.41-.63-18.71,5.37-24.99,14.82,8.28-4.91,16.9-10.02,24.99-14.82ZM398.93,399.56c-6.5-8.09-14.66-14.8-25.8-15.23,8.42,4.97,17.41,10.28,25.8,15.23ZM507.22,436.94c-5.27-1.13-10.38-2.25-15.51-3.29-.47-.1-1.19.1-1.52.43-3.14,3.1-6.23,6.25-9.61,9.67,5.53,5.11,10.9,10.07,16.53,15.27,4.9-6.81,8.5-13.69,10.1-22.08ZM507.75,417.73c-2.17,2.02-4.4,4.1-6.52,6.07,2.13.58,4.47,1.22,7.36,2.01-.33-3.21-.62-5.94-.84-8.08ZM295.61,435.55h0c11.53-1.06,20-11.12,18.93-22.46l-.72-7.56c-1.08-11.35-11.3-19.69-22.83-18.63h0c-11.53,1.06-20,11.12-18.93,22.46l.72,7.56c1.08,11.35,11.3,19.69,22.83,18.63ZM547.75,435.55h0c11.53-1.06,20-11.12,18.93-22.46l-.72-7.56c-1.08-11.35-11.3-19.69-22.83-18.63h0c-11.53,1.06-20,11.12-18.93,22.46l.72,7.56c1.08,11.35,11.3,19.69,22.83,18.63Z"/>
    </g>
    <g>
      <g>
        <g>
          <path class="cls-1" d="M418.2,587.08c0,.1.07.16.17.17.25.27.44.64.91.55,0,0-.01-.02-.01-.02.1.14.19.28.29.42,2.28,2.46,4.25,5.15,5.82,8.27.62-.51.86-1.14,1.2-1.68,3.82-6.09,8.69-11,15.8-12.96,6.37-1.75,12.72-1.82,18.69,1.7,1.03.61,1.39,1.07.41,2.03-.76.75-1.25,1.92-2.13,2.36-.97.49-1.94-.59-2.94-.91-8.08-2.6-17.34-.27-23.37,7.14-2.32,2.84-3.96,6.04-5.34,9.4-.44,1.07-1.18,1.87-2.39,1.83-1.18-.03-1.96-.78-2.42-1.84-.14-.33-.24-.67-.38-1-1.27-3.02-2.77-5.9-5.08-8.29-.09-.02-.18-.03-.27-.05,0,0,.02.02.02.02,0-.37-.12-.61-.55-.56,0,0,.02.02.02.02.16-.32-.1-.42-.3-.55,0,0,0,.02,0,.02-.1-.1-.19-.19-.29-.29,0,0,.02.02.02.02-.1-.1-.19-.19-.29-.29,0,0,.02.02.02.02-.1-.1-.19-.19-.29-.29,0,0,.02,0,.02,0-.13-.21-.23-.45-.55-.3,0,0,.03.02.03.02.06-.42-.18-.56-.55-.55,0,0,0,0,0,0,.01-.38-.26-.47-.56-.54,0,0,.01.01.01.01,0-.18-.12-.26-.29-.28,0,0,.01,0,.01,0-.46-.48-.92-.96-1.61-1.09,0,0,.01.01.01.01.01-.21-.13-.25-.29-.28h.02c-.3-.29-.6-.59-1.08-.54,0,0,.01,0,.01,0-.08-.3-.3-.33-.55-.28h.01c-.4-.55-1-.7-1.63-.8,0,0,.02,0,.02,0-.21-.29-.49-.35-.82-.28,0,0,.02,0,.02,0-.44-.41-1-.5-1.56-.61-1.14-.46-2.34-.62-3.56-.69-1.43,0-2.86,0-4.29,0-6.12.73-10.7,3.99-14.28,8.82-3.43,4.64-4.95,9.95-5.31,15.64-.58,9.09,2.59,16.89,8.17,23.88,1.6,2.01,1.58,2.03.05,4-1.03,1.33-1.73,1.39-2.95.17-2.09-2.1-3.71-4.57-5.23-7.09-3.31-5.49-4.75-11.52-5.16-17.85-.53-8.02,1.48-15.33,5.99-21.99,2.63-3.88,6.17-6.62,10.23-8.8,1.35-.73,2.73-1.35,4.23-1.7,2.39-.49,4.79-.83,7.25-.78,3.34.06,6.48.95,9.62,1.93h-.02c.4.3.83.54,1.36.54,0,0-.02,0-.02,0,.25.42.63.55,1.09.55,0,0-.02-.02-.02-.02-.01.21.14.25.29.29,0,0-.02-.02-.02-.02.14.19.32.29.56.28,0,0-.02-.01-.02-.01.11.25.3.33.56.28,0,0-.02-.02-.02-.02-.01.21.13.25.29.28,0,0-.02-.01-.02-.01.54.36.9,1.01,1.63,1.09,0,0-.02-.01-.02-.01.19.31.38.62.82.55,0,0-.01-.01-.01-.01.06.31.3.43.55.55,0,0,0-.03,0-.03.09.13.18.26.28.38Z"/>
          <path class="cls-1" d="M450.99,653.81c-2.91,3.3-3.42,2.92-6.68.69-.84-.58-1.59-1.29-2.37-1.94-5.16-4.74-10.16-9.66-15.13-14.6-1.44-1.35-2.51-3.09-4.29-4.07-3.29-4.06-7.19-7.52-10.82-11.26-3.59-3.69-7.26-7.26-11.34-10.38-4.37-3.35-9.01-6.28-14.13-8.39-1.1-.45-1.29-.93-.65-2,1.75-2.94,1.05-2.62,4.12-1.49,5.52,2.04,10.2,5.48,14.81,9.02,7.86,6.05,15.52,12.34,22.84,19.03.98.9,2.22,1.5,3.05,2.57.08.18.21.3.42.28,0,0-.02-.01-.02-.01-.01.2.09.29.28.28,0,0-.02-.02-.02-.01,0,.19.11.27.29.28,0,0-.02-.02-.02-.02.01.18.11.27.29.28,0,0-.02-.02-.02-.02.02.18.12.26.29.28,0,0-.02,0-.02,0,.09.27.28.45.55.55,0,0-.01-.01-.01-.01.12.21.23.43.54.3,0,0-.02-.01-.02-.01.01.53.35.74.82.81,0,0,0-.01,0-.01-.03.22.09.29.29.27,0,0-.01-.02-.01-.02,0,.2.09.29.28.28,0,0-.02-.02-.02-.02-.01.2.09.29.29.28,0,0-.01-.02-.01-.02.1.14.19.28.29.42,2.9,2.79,5.74,5.64,8.89,8.19,1.24,1,2.54,2,3.62,3.22,1.76,1.82,4.12,3.23,4.12,6.21-.24.3-.48.61-.48,1.02Z"/>
          <path class="cls-1" d="M468.74,589.29c-.93-.85-1.75-1.79-2.5-2.78-.36.43-.78.82-1.2,1.22-1.03.97-1.97,2.03-2.92,3.07-5.23,5.7-10.54,11.33-15.82,16.98-4.97,5.32-10.15,10.46-15.04,15.85-.69.76-.68,1.13.05,1.78,1.13,1.01,2.21,2.09,3.2,3.24.68.79,1.09.75,1.76,0,3.49-3.96,7.09-7.82,10.52-11.82,7.59-8.86,15.32-17.6,23.34-26.08.07-.07.13-.13.2-.19-.55-.39-1.09-.8-1.59-1.26Z"/>
          <path class="cls-1" d="M390.02,595.56c.04-.05.04-.1,0-.16.09-.13.19-.25.28-.38,0,0-.02.02-.02.02.19,0,.29-.09.29-.29v.02c.41-.12.69-.39.81-.82,0,0-.01.01-.01.01.49-.1.77-.48,1.08-.82,0,0-.02.01-.02.01.16-.03.32-.05.29-.28,0,0-.02.01-.02.01.74.04,1.47-.06,2.2.22,1.3.51,2.64.94,3.96,1.4,5.67,2.78,10.97,6.15,16,9.96,5.19,3.93,10.13,8.16,15.09,12.37.7.6.69.99.04,1.58-.7.62-1.37,1.3-1.97,2.01-.61.74-1.08.61-1.76.05-6.29-5.23-12.47-10.59-19.1-15.4-2.85-2.07-5.71-4.13-8.99-5.52-.36-.26-.72-.53-1.2-.55,0,0,.03.01.03.01-.98-.75-2.09-1.23-3.24-1.63,0,0,.02.01.02.01-.22-.25-.49-.37-.83-.29,0,0,.02,0,.02,0-.41-.54-1.02-.68-1.63-.81,0,0,.02.01.02.01-.45-.26-.91-.53-1.36-.79Z"/>
          <path class="cls-1" d="M421.95,667.49c.64,1.01,1.79,1.41,2.65,2.17.56.5,1.34.36,2.04.05,1.24-.56,2.35-1.31,3.29-2.27,2.21-2.25,4.45-4.48,6.33-7.04,1.02-1.39,2.39-2.52,3.6-3.76.65-.67,1.2.12,1.42.35.87.91,1.75,1.73,2.87,2.32.66.34.28.8-.06,1.2-3.2,3.75-6.75,7.16-10.21,10.66-1.47,1.49-3.13,2.68-5.03,3.53-2.97,1.31-5.73.93-8.32-.99-1.3-.97-2.42-2.12-3.56-3.25-.34-.33-.57-.82-1.12-.89,0,0-.02.07-.02.07,0-.57-.49-.77-.84-1.07,0,0,0,.03,0,.03-.1-.1-.19-.19-.29-.29,0,0,.02.02.02.02-.1-.1-.19-.19-.29-.29,0,0,.02.02.02.02-.09-.13-.19-.25-.28-.38-.91-.98-1.8-1.98-2.73-2.93-.43-.44-.46-.74,0-1.2.98-.97,1.92-1.99,2.84-3.03.54-.61.94-.54,1.36.09,1.75,2.61,4.12,4.67,6.29,6.91Z"/>
          <path class="cls-1" d="M461.69,630.87c.91,1.27,2.16,2.26,3,3.6,1.28,2.03,1.24,3.94-.05,5.84-.51.75-1.3.88-1.96,1.29,0,0-.01.02-.01.02-1.66-.26-2.89-1.26-4.08-2.34-1.87-1.69-3.73-3.38-5.6-5.07-.07-.19-.16-.34-.4-.29,0,0,.02,0,.02,0,.05-.23-.03-.33-.27-.28,0,0,0,.01,0,.01.11-.3-.11-.4-.3-.53,0,0,.01.01.01.01-.27-.27-.54-.55-.82-.82,0,0,.01.02.01.02-.32-.4-.58-.85-1.1-1.04-1.65-1.68-3.07-3.58-4.84-5.15-.3-.26-.17-.47.02-.68,1.48-1.61,2.98-3.21,4.46-4.82.45-.49.68-.07.97.18,1.42,1.22,2.84,2.45,4.25,3.67.7.66,1.4,1.31,2.11,1.97,0,0-.02-.02-.02-.02.19.19.37.37.56.56,0,0-.02-.02-.02-.02.14.19.25.42.56.29,0,0-.03-.02-.03-.02.11.62.56.9,1.1,1.08,0,0-.02-.02-.02-.02,0,.2.09.29.29.29,0,0-.02-.02-.02-.02,0,.2.11.28.29.29,0,0-.02-.02-.02-.02,0,.19.1.28.29.29,0,0-.02-.02-.02-.02,0,.18.11.28.29.29,0,0-.02-.02-.02-.02.02.18.12.27.29.29,0,0-.02-.02-.02-.02.02.17.11.28.29.29,0,0-.02-.02-.02-.02.01.18.11.28.29.29,0,0-.02-.02-.02-.02.01.18.11.28.29.29,0,0-.02-.03-.02-.03.1.14.19.28.29.42Z"/>
          <path class="cls-1" d="M476.18,611.29c-.16,3.95-.51,7.6-1.45,11.2-.76,2.94-2.09,5.61-3.39,8.31-.17.36-.41.72-.7.97-.81.69-1.66,1.44-2.81.65-1.3-.89-1.74-2.16-1.11-3.48.87-1.81,1.75-3.62,2.42-5.51,2.68-7.51,2.7-15.06.2-22.59-.39-1.17-.21-1.9.62-2.68.62-.58,1.18-1.23,1.7-1.9.59-.76.93-.78,1.33.18,1.54,3.74,2.49,7.63,2.92,11.65.12,1.15.2,2.31.28,3.22Z"/>
          <path class="cls-1" d="M404.81,654.91c4.93-5.16,10.05-10.13,15.07-15.2.9-.91,1.34-.75,2.03.04.32.36.73.64,1.1.95,0,0,0-.04,0-.04.16.38.45.64.82.82,0,0-.01-.02-.01-.02.31.34.5.84,1.09.83,0,0-.02-.02-.02-.02.05.86-1.02,1.07-1.09,1.86-2.74,3.05-5.46,6.11-8.21,9.14-1.74,1.92-3.54,3.78-5.31,5.67-.58.62-1.24,1.14-1.93,1.64-.76.54-1.31.59-2.12.06-2.41-1.59-2.76-2.71-1.49-5.34.06-.12.06-.26.09-.39Z"/>
          <path class="cls-1" d="M428.09,645.94c.38.33.6.49.78.67,1.98,2.04,4.34,3.67,6.27,5.77.52.56.55.89.07,1.43-2.98,3.33-6.01,6.6-9.27,9.66-.53.5-.88.56-1.41-.01-1.92-2.05-3.88-4.07-5.86-6.07-.51-.52-.42-.84.04-1.31,2.99-3.13,5.97-6.28,8.94-9.43.18-.19.29-.45.45-.71Z"/>
          <path class="cls-1" d="M417.38,636.32c-5.5,4.89-10.59,10.2-15.74,15.45-.47.48-.61,1.16-1.17,1.59-1.05.82-1.96.83-2.98-.08-.94-.85-1.3-1.77-.84-2.97.06-.16.09-.34.13-.52,1.11-1.6,2.87-2.57,3.99-4.16.23-.19.53-.32.55-.68h0c1.28-.89,2.26-2.1,3.34-3.21.14-.15.28-.3.42-.45.22-.21.44-.42.66-.64.85-.81,1.69-1.62,2.54-2.42.15-.14.37-.26.3-.53,0,0-.02.02-.02.02.21.02.32-.06.29-.29,0,0-.02.02-.02.02.38.01.58-.16.56-.55,0,0-.03.02-.02.02.3.11.42-.11.56-.29,0,0-.03.02-.03.02.1-.1.2-.2.29-.3,0,0-.02.02-.02.02.1-.1.19-.19.29-.29,0,0-.02.02-.02.02.1-.1.19-.19.29-.29,0,0-.02.02-.02.02.1-.1.19-.19.29-.29,0,0-.02.02-.02.02.1-.1.19-.19.29-.29,0,0-.02.02-.02.02.1-.1.19-.19.29-.29,0,0-.02.02-.02.02.1-.1.19-.19.29-.29,0,0-.02.02-.02.02.14-.1.28-.19.42-.29.76-.65,1.89-1.99,2.22-1.81,1.2.63,2.12,1.78,3.17,2.7.53.47-.07.65-.19.95Z"/>
          <path class="cls-1" d="M392.46,646.27c-1.03-.06-1.77-.6-2.24-1.47-.46-.85-.45-1.75.17-2.52.67-.83,1.4-1.63,2.15-2.39,4.64-4.65,9.25-9.33,14.06-13.81.75-.7,1.16-.71,1.8.04.61.71,1.29,1.37,2,1.98.66.57.53.94-.07,1.47-5.48,4.81-10.73,9.84-15.51,15.37-.61.71-1.28,1.41-2.36,1.34Z"/>
          <path class="cls-1" d="M452.63,595.35c-2.75,2.87-5.54,5.82-8.37,8.73-3.05,3.15-6.14,6.25-9.17,9.42-.66.69-1.09.67-1.76.08-1.28-1.11-2.59-2.21-3.97-3.19-.83-.59-.69-.92-.03-1.48,3.68-3.06,7.58-5.82,11.65-8.35,3.55-2.21,7.37-3.81,11.32-5.15.16-.05.33-.06.33-.06Z"/>
          <path class="cls-1" d="M438.75,632.6c.8-1.04,1.66-2.03,2.7-2.85.31-.24.51-.27.8-.09.21.18.43.37.64.55,0,0-.01-.03-.01-.03.1.1.2.2.29.3,0,0-.03-.03-.03-.03.1.1.2.2.3.3,0,0-.03-.02-.03-.02.32.34.52.82,1.09.83,0,0-.02-.02-.02-.02-.01.38.16.58.55.56,0,0-.02-.02-.02-.01-.03.4.22.51.56.55,0,0-.01-.02-.01-.02-.01.2.09.29.28.28,0,0-.02-.02-.02-.02-.01.2.09.29.28.28,0,0-.01-.02-.01-.02.1.14.19.28.29.42,3.44,3.22,6.73,6.59,10.44,9.51.1.09.2.19.3.28h-.02c.3.43.6.86.89,1.3.27,1.11-.01,2.03-1,2.65-1.04.64-1.94.32-2.76-.47-.22-.21-.5-.37-.75-.55-.94-.81-1.87-1.61-2.81-2.42-1.28-1.28-2.71-2.38-4.15-3.48-.14-.1-.28-.19-.42-.29,0,0,.02.02.02.02-.01-.18-.12-.26-.29-.29,0,0,.02.01.02.01-.29-.37-.52-.82-1.09-.82,0,0,.02.02.02.02.02-.39-.23-.51-.56-.55,0,0,.02.02.02.02,0-.19-.1-.28-.29-.29,0,0,.02.02.02.02-.04-.34-.34-.47-.55-.66-.02-.1-.08-.15-.18-.15-.12-.09-.25-.19-.37-.28,0,0,.03.02.03.02-.1-.1-.19-.19-.29-.29,0,0,.02.02.02.02-.1-.1-.2-.2-.29-.3,0,0,.03.02.03.02-.14-.18-.27-.4-.56-.29,0,0,.02.02.02.02-.03-.52-.33-.77-.83-.82,0,0,.02.02.02.02.02-.22-.07-.31-.29-.29,0,0,.02.02.02.02.03-.22-.07-.31-.29-.29,0,0,.02.02.02.02.02-.22-.07-.31-.29-.29,0,0,.02.02.02.02,0-.38-.19-.55-.55-.55,0,0,.02.02.02.02.02-.21-.08-.31-.29-.29,0,0,.02.02.02.02.02-.21-.08-.3-.29-.29,0,0,.02.02.02.02-.02-.35-.18-.56-.55-.55,0,0,.02.03.02.03.04-.18.08-.36.12-.55Z"/>
          <path class="cls-1" d="M457.4,621.46c-1.32-1.2-2.62-2.42-3.98-3.59-.51-.44-.62-.73-.12-1.28,1.04-1.17,2.03-2.38,2.99-3.62.39-.5.8-.63,1.39-.52,2.59.47,5.18.93,7.73,1.6.75.2.91.6.81,1.26-.55,3.6-1.63,7.04-3.18,10.33-.32.67-.57.63-1.03.12-.75-.82-1.45-1.7-2.41-2.31-.11-.1-.23-.19-.34-.29,0,0,.03.02.03.02-.52-.7-1.23-1.2-1.89-1.74Z"/>
          <path class="cls-1" d="M384.13,607.95c.29.13.62.27.94.43,6.77,3.3,12.64,7.85,18.14,12.94.6.55.64.9-.04,1.46-1.92,1.58-1.89,1.61-3.72.03-4.68-4.06-9.71-7.58-15.47-9.95-.7-.29-.97-.69-.87-1.42.13-.93.21-1.86.36-2.78.05-.31.08-.76.66-.69Z"/>
          <path class="cls-1" d="M384.18,618.48c4.21,2.02,8.04,4.45,11.44,7.53,1.91,1.73,1.92,1.73.07,3.43-1.12,1.03-2.28,2.02-3.37,3.07-.45.43-.71.52-1.17,0-3.41-3.91-5.75-8.38-7.02-13.41-.04-.16.02-.34.05-.62Z"/>
          <path class="cls-1" d="M434.68,598.91c3.95-5.11,9.29-7.34,15.59-7.57-5.4,2.03-10.41,4.83-15.34,7.79-.08-.07-.17-.15-.25-.22Z"/>
          <path class="cls-1" d="M465.37,603.19c.85,1.97.82,3.77,1.12,5.51.14.82-.32.91-.95.76-1.52-.36-3.03-.73-4.84-1.17,1.6-1.75,3.08-3.36,4.67-5.1Z"/>
          <path class="cls-1" d="M412.3,595.18c.34.76,1.28,1.07,1.65,2.3-3.63-2.67-7.35-4.47-11.06-6.41.81.14,1.63.28,2.44.42.26.02.53.04.79.07h-.01c.3.32.66.4,1.08.28,0,0-.02,0-.02,0,.07.34.31.3.55.26,0,0-.01,0-.01,0,.24.42.71.46,1.09.66.09.15.22.18.39.13.25.29.54.52.95.55h0c.24.42.67.6,1.08.8,0,0,0,0,0,0,.11.22.25.4.54.29,0,0-.02-.02-.02-.02-.04.24.08.3.29.28,0,0-.01-.02-.01-.02-.03.23.12.33.29.41Z"/>
        </g>
        <g>
          <path class="cls-1" d="M244.84,668.18l-11.32-21.61h-.09v21.61h-18.89v-60.24h28.08c4.88,0,9.05.87,12.51,2.6,3.46,1.73,6.05,4.08,7.79,7.06,1.73,2.98,2.6,6.34,2.6,10.08,0,4.03-1.12,7.6-3.36,10.72-2.24,3.12-5.46,5.36-9.66,6.72l13.1,23.06h-20.76ZM233.44,633.97h7.49c1.81,0,3.18-.41,4.08-1.23.91-.82,1.36-2.11,1.36-3.87,0-1.59-.47-2.84-1.4-3.74-.94-.91-2.28-1.36-4.04-1.36h-7.49v10.21Z"/>
          <path class="cls-1" d="M317.75,647.5h-30.38c.28,4.14,2.01,6.21,5.19,6.21,2.04,0,3.52-.94,4.42-2.81h19.99c-.68,3.4-2.11,6.45-4.3,9.15-2.18,2.7-4.93,4.82-8.25,6.38-3.32,1.56-6.96,2.34-10.93,2.34-4.77,0-9.01-.99-12.72-2.98-3.72-1.98-6.61-4.84-8.68-8.55-2.07-3.71-3.11-8.07-3.11-13.06s1.03-9.34,3.11-13.06c2.07-3.71,4.96-6.56,8.68-8.55,3.71-1.99,7.96-2.98,12.72-2.98s9,.98,12.72,2.94c3.71,1.96,6.61,4.75,8.68,8.38,2.07,3.63,3.11,7.91,3.11,12.85,0,1.31-.09,2.55-.26,3.74ZM298.86,639.25c0-1.59-.51-2.79-1.53-3.62-1.02-.82-2.3-1.23-3.83-1.23-3.35,0-5.3,1.62-5.87,4.85h11.23Z"/>
          <path class="cls-1" d="M348,621.51c2.24-1.28,4.92-1.91,8.04-1.91,3.74,0,7.12.98,10.13,2.94,3.01,1.96,5.37,4.79,7.1,8.51,1.73,3.72,2.6,8.1,2.6,13.15s-.87,9.43-2.6,13.15c-1.73,3.72-4.1,6.55-7.1,8.51-3.01,1.96-6.38,2.94-10.13,2.94-3.12,0-5.8-.64-8.04-1.91-2.24-1.28-3.96-3.02-5.15-5.23v6.55h-18.89v-62.96h18.89v21.53c1.19-2.21,2.91-3.96,5.15-5.23ZM354.77,638.23c-1.31-1.42-2.98-2.13-5.02-2.13s-3.72.71-5.02,2.13c-1.31,1.42-1.96,3.4-1.96,5.96s.65,4.54,1.96,5.96c1.3,1.42,2.98,2.13,5.02,2.13s3.71-.71,5.02-2.13c1.3-1.42,1.96-3.4,1.96-5.96s-.65-4.54-1.96-5.96Z"/>
          <path class="cls-1" d="M501.19,652.52h19.99v15.66h-40.67v-14.8l18.29-17.53h-18.04v-15.66h39.56v14.8l-19.14,17.53Z"/>
          <path class="cls-1" d="M536.93,665.79c-3.86-1.98-6.88-4.84-9.06-8.55-2.18-3.71-3.28-8.07-3.28-13.06s1.09-9.34,3.28-13.06c2.18-3.71,5.2-6.56,9.06-8.55,3.86-1.99,8.2-2.98,13.02-2.98s9.16.99,13.02,2.98c3.86,1.99,6.88,4.84,9.06,8.55,2.18,3.72,3.28,8.07,3.28,13.06s-1.09,9.35-3.28,13.06c-2.18,3.72-5.2,6.57-9.06,8.55-3.86,1.99-8.2,2.98-13.02,2.98s-9.16-.99-13.02-2.98ZM554.37,650.35c1.19-1.39,1.79-3.45,1.79-6.17s-.6-4.78-1.79-6.17c-1.19-1.39-2.67-2.08-4.42-2.08s-3.23.7-4.42,2.08c-1.19,1.39-1.79,3.45-1.79,6.17s.58,4.78,1.74,6.17c1.16,1.39,2.65,2.08,4.47,2.08s3.23-.69,4.42-2.08Z"/>
          <path class="cls-1" d="M590.57,666.56c-3.49-1.47-6.25-3.52-8.3-6.13-2.04-2.61-3.21-5.56-3.49-8.85h18.12c.23,1.42.84,2.47,1.83,3.15.99.68,2.25,1.02,3.79,1.02.96,0,1.73-.21,2.3-.64.57-.43.85-.95.85-1.57,0-1.08-.6-1.84-1.79-2.3-1.19-.45-3.2-.96-6.04-1.53-3.46-.68-6.31-1.42-8.55-2.21-2.24-.79-4.2-2.16-5.87-4.08-1.67-1.93-2.51-4.59-2.51-8,0-2.95.78-5.63,2.34-8.04,1.56-2.41,3.87-4.31,6.93-5.7,3.06-1.39,6.78-2.08,11.15-2.08,6.47,0,11.53,1.59,15.19,4.77,3.66,3.18,5.86,7.32,6.59,12.42h-16.76c-.28-1.3-.88-2.31-1.79-3.02-.91-.71-2.13-1.06-3.66-1.06-.97,0-1.7.18-2.21.55-.51.37-.77.92-.77,1.66,0,.97.6,1.69,1.79,2.17,1.19.48,3.09.98,5.7,1.49,3.46.68,6.38,1.45,8.76,2.3,2.38.85,4.45,2.31,6.21,4.38,1.76,2.07,2.64,4.92,2.64,8.55,0,2.84-.82,5.39-2.47,7.66-1.65,2.27-4.01,4.06-7.1,5.36-3.09,1.31-6.71,1.96-10.85,1.96-4.54,0-8.55-.74-12.04-2.21Z"/>
        </g>
      </g>
      <g>
        <path class="cls-1" d="M397.64,730.72c0-9.02,6.98-28.67,10.55-39.22-4.93,5.7-11.66,17.18-18.46,28.84-3.15,5.36-6.21,10.72-9.1,15.48-.26.34-.43.51-.85.51-2.3,0-5.02-.08-5.53-2.21-.09-.25-.09-.68-.09-1.11,0-7.32,9.95-33.61,12.68-41.52-4.93,5.79-11.57,17.27-18.38,28.84-3.15,5.44-6.3,10.81-9.27,15.57-.17.34-.43.43-.77.43h-.85c-1.79,0-4.17-.34-4.59-2.21l-.08-.85c0-2.72,1.53-8.85,3.74-15.91,3.57-12,8.59-26.71,10.29-30.88l-.42-.08c-3.74,0-11.74,14.97-12.42,18.21-.08.51-.17.94-.17,1.28s.09.51.26.6c.43.09.68.43.68.77s-.17.68-.6.85c-1.11.34-2.47.77-3.83.77-.77,0-1.53-.17-2.21-.51-1.11-.68-1.45-1.79-1.45-2.98,0-.68.09-1.45.26-2.13,1.02-3.83,4.17-9.27,7.83-13.44,3.06-3.66,6.64-6.38,9.78-6.64l1.53-.09c3.32,0,8.42.85,8.42,4,0,.51-.17,1.02-.43,1.62-1.28,3.06-9.27,25.52-12.59,37.01,7.06-14.04,21.86-42.45,28.16-42.54h.17c3.49,0,5.61,1.62,5.61,4.59,0,.94-.25,1.96-.68,3.15-3.49,8.85-7.49,20.42-10.29,29.44l-1.62,5.19c7.06-14.04,21.78-42.28,28.08-42.37,2.89,0,5.87,1.19,5.87,4.42,0,1.53-.77,3.32-1.28,4.76-3.23,8.85-10.97,29.95-10.97,38.8,0,1.79.25,3.06,1.02,3.66.26.17.34.43.34.68,0,.43-.34.85-.85.85-4.42,0-7.4-.08-7.49-5.61Z"/>
        <path class="cls-1" d="M431.34,732.17c-2.13,0-4.34-.25-5.27-2.04-.51-.85-.68-2.13-.68-3.57,0-.85.08-1.7.17-2.72-1.96,3.4-4.68,6.72-8,6.72h-.17c-4.08-.09-5.79-3.49-5.79-7.91,0-8.42,6.13-20.42,14.55-20.42h.08c2.21,0,4,.77,5.02,2.38l.6-1.53c.43-.68,1.19-.94,2.21-.94,1.96,0,4.59,1.19,4.59,2.55l-.09.34c-1.11,2.72-6.64,17.36-6.81,23.48,0,1.19.08,1.96.51,1.96,2.81-.08,8.17-10.97,10.63-16.33.17-.43.42-.51.77-.51l.43.08c.25.09.42.34.42.68q0,.17-.08.43c-2.81,6.04-8.08,17.18-12.08,17.36h-1.02ZM427.68,714.64c.43-1.11,1.19-3.4,1.19-5.27,0-1.19-.34-2.13-1.28-2.38l-.51-.09c-3.83,0-8.68,11.57-8.68,16.59,0,1.45.42,2.3,1.28,2.3,2.55-.08,7.15-9.02,8-11.14Z"/>
        <path class="cls-1" d="M454.82,732.17c-2.04,0-5.02-.09-6.04-2.04-.43-.85-.68-2.04-.68-3.4,0-6.38,4.25-16.93,5.79-21.52-1.11.09-2.64.51-4.08.51-.43,0-.94,0-1.36-.17-1.28,3.32-2.04,5.02-4,9.27-.08.25-.43.51-.68.51-.17,0-.26,0-.43-.08-.26-.09-.51-.26-.51-.77,0-.09,0-.17.09-.34,2.04-4.51,2.64-5.87,4.08-9.36-.77-.6-1.11-1.45-1.11-2.38,0-1.19.43-2.47.85-3.57.26-.68,1.19-.94,2.04-.94,1.02,0,2.13.34,2.13,1.02l-.09.25c-.34,1.19-1.02,3.15-1.28,3.74,2.3-.09,4.25-.77,6.04-.77,2.13,0,4.25,1.62,4.59,3.83l.09.6c0,1.36-.68,3.15-1.62,5.87-1.36,3.83-4.08,11.4-4.08,15.65l.17,1.45c.17.77.51,1.02.94,1.02,1.11,0,2.72-1.96,3.15-2.64,1.62-2.38,3.74-6.64,6.98-13.78.17-.34.43-.51.68-.51s.43.08.6.17.34.34.34.68c0,.08,0,.17-.09.34-3.23,7.23-5.36,11.57-7.06,14.04-1.87,2.72-3.06,3.32-4.59,3.32h-.85Z"/>
        <path class="cls-1" d="M467.25,748.25c-3.23-.17-5.53-2.3-5.53-5.62v-.34c.09-.51.43-.77.77-.77h.17c.43,0,.85.25.85.68,0,1.45,1.02,2.3,2.55,2.3h.08c6.55,0,9.87-14.63,11.32-19.82-2.04,3.83-4.85,7.49-7.23,7.66h-1.02c-2.13,0-4.34-.26-5.36-2.04-.43-.85-.68-1.96-.68-3.4,0-6.89,4.68-19.65,6.55-23.65.34-.68,1.11-.94,2.13-.94,1.96,0,4.59,1.19,4.59,2.47l-.08.43c-.68,1.87-6.89,18.89-6.89,23.99,0,.94.17,1.45.68,1.45.94-.09,2.55-1.28,4.76-4.76,1.7-2.89,3.74-7.15,5.96-13.36.94-2.98,1.87-6.04,2.98-9.1.26-.77,1.19-1.11,2.38-1.11,2.04,0,4.68,1.02,4.68,2.38l-.09.34c-1.02,2.72-2.13,6.47-3.4,10.46-1.62,5.53-4.34,14.38-6.47,19.74-2.38,5.79-5.87,13.02-13.1,13.02h-.6Z"/>
      </g>
    </g>
  </g>
</svg>