<svg xmlns="http://www.w3.org/2000/svg" viewBox="0 0 120 120" fill="none">
  <circle cx="60" cy="60" r="58" fill="#da1e7a" stroke="#a3145b" stroke-width="1"/>
  <circle cx="60" cy="60" r="50" fill="none" stroke="#fdf0f8" stroke-width="0.5" stroke-dasharray="4 3"/>
  <!-- Rebozo pattern lines -->
  <line x1="30" y1="45" x2="90" y2="45" stroke="#fdf0f8" stroke-width="1.5" stroke-linecap="round"/>
  <line x1="25" y1="52" x2="95" y2="52" stroke="#c4843c" stroke-width="1" stroke-linecap="round"/>
  <line x1="30" y1="59" x2="90" y2="59" stroke="#fdf0f8" stroke-width="1.5" stroke-linecap="round"/>
  <line x1="25" y1="66" x2="95" y2="66" stroke="#c4843c" stroke-width="1" stroke-linecap="round"/>
  <line x1="30" y1="73" x2="90" y2="73" stroke="#fdf0f8" stroke-width="1.5" stroke-linecap="round"/>
  <!-- Fringe top -->
  <line x1="35" y1="38" x2="35" y2="43" stroke="#fdf0f8" stroke-width="1.2" stroke-linecap="round"/>
  <line x1="42" y1="36" x2="42" y2="43" stroke="#fdf0f8" stroke-width="1.2" stroke-linecap="round"/>
  <line x1="49" y1="35" x2="49" y2="43" stroke="#fdf0f8" stroke-width="1.2" stroke-linecap="round"/>
  <line x1="56" y1="34" x2="56" y2="43" stroke="#fdf0f8" stroke-width="1.2" stroke-linecap="round"/>
  <line x1="63" y1="34" x2="63" y2="43" stroke="#fdf0f8" stroke-width="1.2" stroke-linecap="round"/>
  <line x1="70" y1="35" x2="70" y2="43" stroke="#fdf0f8" stroke-width="1.2" stroke-linecap="round"/>
  <line x1="77" y1="36" x2="77" y2="43" stroke="#fdf0f8" stroke-width="1.2" stroke-linecap="round"/>
  <line x1="84" y1="38" x2="84" y2="43" stroke="#fdf0f8" stroke-width="1.2" stroke-linecap="round"/>
  <!-- Fringe bottom -->
  <line x1="35" y1="75" x2="35" y2="82" stroke="#fdf0f8" stroke-width="1.2" stroke-linecap="round"/>
  <line x1="42" y1="75" x2="42" y2="84" stroke="#fdf0f8" stroke-width="1.2" stroke-linecap="round"/>
  <line x1="49" y1="75" x2="49" y2="85" stroke="#fdf0f8" stroke-width="1.2" stroke-linecap="round"/>
  <line x1="56" y1="75" x2="56" y2="86" stroke="#fdf0f8" stroke-width="1.2" stroke-linecap="round"/>
  <line x1="63" y1="75" x2="63" y2="86" stroke="#fdf0f8" stroke-width="1.2" stroke-linecap="round"/>
  <line x1="70" y1="75" x2="70" y2="85" stroke="#fdf0f8" stroke-width="1.2" stroke-linecap="round"/>
  <line x1="77" y1="75" x2="77" y2="84" stroke="#fdf0f8" stroke-width="1.2" stroke-linecap="round"/>
  <line x1="84" y1="75" x2="84" y2="82" stroke="#fdf0f8" stroke-width="1.2" stroke-linecap="round"/>
  <!-- M letter -->
  <text x="60" y="100" font-family="Playfair Display, serif" font-size="11" font-weight="700" fill="#fdf0f8" text-anchor="middle" letter-spacing="3">MARY</text>
</svg>
